<?xml version="1.0" encoding="UTF-8" standalone="no"?>
<!-- Created with Inkscape (http://www.inkscape.org/) -->

<svg
   width="24px"
   height="24px"
   viewBox="0 0 24 24"
   version="1.1"
   id="SVGRoot"
   inkscape:export-filename="/tmp/template.png"
   inkscape:export-xdpi="96"
   inkscape:export-ydpi="96"
   inkscape:version="1.4.2 (ebf0e940, 2025-05-08)"
   sodipodi:docname="env-bright.svg"
   xmlns:inkscape="http://www.inkscape.org/namespaces/inkscape"
   xmlns:sodipodi="http://sodipodi.sourceforge.net/DTD/sodipodi-0.dtd"
   xmlns="http://www.w3.org/2000/svg"
   xmlns:svg="http://www.w3.org/2000/svg"
   xmlns:rdf="http://www.w3.org/1999/02/22-rdf-syntax-ns#"
   xmlns:cc="http://creativecommons.org/ns#"
   xmlns:dc="http://purl.org/dc/elements/1.1/">
  <sodipodi:namedview
     id="base"
     pagecolor="#E0E1E2"
     bordercolor="#666768"
     borderopacity="1.0"
     inkscape:pageopacity="0"
     inkscape:pageshadow="2"
     inkscape:zoom="25.98"
     inkscape:cx="11.951501"
     inkscape:cy="16.839877"
     inkscape:document-units="px"
     inkscape:current-layer="layer1"
     showgrid="true"
     inkscape:window-width="2560"
     inkscape:window-height="1322"
     inkscape:window-x="0"
     inkscape:window-y="30"
     inkscape:window-maximized="0"
     inkscape:grid-bbox="true"
     inkscape:pagecheckerboard="false"
     inkscape:snap-bbox="true"
     inkscape:bbox-nodes="true"
     inkscape:snap-others="false"
     inkscape:object-nodes="false"
     inkscape:snap-grids="true"
     inkscape:snap-bbox-midpoints="false"
     inkscape:showpageshadow="2"
     inkscape:deskcolor="#d1d1d1">
    <inkscape:grid
       type="xygrid"
       id="grid1374"
       originx="1"
       originy="1"
       empspacing="11"
       dotted="false"
       spacingy="1"
       spacingx="1"
       units="px" />
  </sodipodi:namedview>
  <defs
     id="defs815" />
  <metadata
     id="metadata818">
    <rdf:RDF>
      <cc:Work
         rdf:about="">
        <dc:format>image/svg+xml</dc:format>
        <dc:type
           rdf:resource="http://purl.org/dc/dcmitype/StillImage" />
        <dc:creator>
          <cc:Agent>
            <dc:title>Maciej Dworak</dc:title>
          </cc:Agent>
        </dc:creator>
        <dc:rights>
          <cc:Agent>
            <dc:title />
          </cc:Agent>
        </dc:rights>
        <dc:description>RawTherapee icon.</dc:description>
        <cc:license
           rdf:resource="http://creativecommons.org/licenses/by-sa/4.0/" />
      </cc:Work>
      <cc:License
         rdf:about="http://creativecommons.org/licenses/by-sa/4.0/">
        <cc:permits
           rdf:resource="http://creativecommons.org/ns#Reproduction" />
        <cc:permits
           rdf:resource="http://creativecommons.org/ns#Distribution" />
        <cc:requires
           rdf:resource="http://creativecommons.org/ns#Notice" />
        <cc:requires
           rdf:resource="http://creativecommons.org/ns#Attribution" />
        <cc:permits
           rdf:resource="http://creativecommons.org/ns#DerivativeWorks" />
        <cc:requires
           rdf:resource="http://creativecommons.org/ns#ShareAlike" />
      </cc:License>
    </rdf:RDF>
  </metadata>
  <g
     id="layer1"
     inkscape:groupmode="layer"
     inkscape:label="Layer 1">
    <path
       inkscape:connector-curvature="0"
       id="path10566"
       d="M 20.399287,13.432214 C 19.630165,12.941297 18.126882,11.98178 18.126882,11.98178"
       style="opacity:0.7;fill:none;stroke:#2a7fff;stroke-width:1.38042;stroke-linecap:round;stroke-linejoin:miter;stroke-miterlimit:4;stroke-dasharray:none;stroke-opacity:1" />
    <path
       inkscape:connector-curvature="0"
       id="path10572"
       d="m 21.752267,8.2576197 c -0.911022,0 -2.691656,0 -2.691656,0"
       style="opacity:0.7;fill:none;stroke:#2a7fff;stroke-width:1.97535;stroke-linecap:round;stroke-linejoin:miter;stroke-miterlimit:4;stroke-dasharray:none;stroke-opacity:1" />
    <path
       inkscape:connector-curvature="0"
       id="path10582"
       d="M 18.125563,4.5348727 C 18.928186,4.0663038 20.496944,3.1504666 20.496944,3.1504666"
       style="opacity:0.7;fill:none;stroke:#2a7fff;stroke-width:1.37769;stroke-linecap:round;stroke-linejoin:miter;stroke-miterlimit:4;stroke-dasharray:none;stroke-opacity:1" />
    <path
       style="opacity:0.7;fill:#2a7fff;stroke:#2a7fff;stroke-width:0.0585804"
       d="M 5.4568067,9.7698174 C 5.2856743,9.6875773 5.1462485,9.5493582 5.0601815,9.3766282 L 4.9898861,9.2355502 V 8.5417447 7.8479402 L 5.061305,7.7015158 C 5.1005852,7.6209854 5.1839022,7.5079452 5.2464543,7.4503203 5.4722237,7.2423344 5.4621649,7.2434452 7.1210121,7.2434452 h 1.5136182 l -0.014611,0.094997 c -0.00804,0.052241 -0.033744,0.2115725 -0.057125,0.3540614 -0.06006,0.3659866 -0.060387,1.3329154 -5.706e-4,1.6925865 0.023697,0.1424882 0.04966,0.3018171 0.057696,0.3540618 l 0.014611,0.094993 -1.5243352,-0.00109 C 5.7091663,9.8320149 5.5755205,9.8269749 5.456806,9.7698519 Z"
       id="path1" />
    <path
       style="opacity:0.7;fill:#2a7fff;stroke:#2a7fff;stroke-width:0.0620539"
       d="M 13.554617,13.325713 C 12.455343,13.157603 11.44231,12.624868 10.674079,11.810893 9.7095795,10.788963 9.2416656,9.3242962 9.4353695,7.933476 9.7360791,5.7743395 11.483491,4.0786047 13.690338,3.8043444 c 0.159194,-0.019784 0.350997,-0.03597 0.426229,-0.03597 h 0.136786 V 8.57322 13.378065 l -0.202634,-0.0037 c -0.111447,-0.002 -0.334693,-0.02393 -0.496102,-0.04861 z"
       id="path2" />
    <path
       style="opacity:0.7;fill:#2a7fff;stroke:#2a7fff;stroke-width:0.0664997"
       d="M 15.055367,8.6049114 V 3.3520938 l 0.586065,0.011344 c 0.652539,0.012625 0.742541,0.038299 0.860327,0.2453924 0.0614,0.1079447 0.06268,0.2108447 0.06268,4.9988179 0,4.8416789 -6.21e-4,4.8896949 -0.06477,5.0024909 -0.117602,0.206786 -0.258963,0.245975 -0.890357,0.246838 l -0.553953,7.54e-4 z"
       id="path3"
       sodipodi:nodetypes="cccsscscc" />
    <path
       id="path4-5"
       style="opacity:0.7;fill:#2a7fff;stroke:#2a7fff;stroke-width:0.0900702"
       d="m 6.821001,10.604519 v 3.019732 H 6.4409417 c -0.2887355,5.4e-5 -0.4101599,0.02291 -0.5067457,0.09549 -0.2277173,0.171073 -0.3149461,0.441271 -0.2494137,0.780928 0.025161,0.130409 -0.094714,0.281746 -2.0289619,2.557116 -1.1483597,1.350879 -2.0744272,2.480105 -2.0982443,2.557117 -0.023452,0.07581 -0.041569,0.184604 -0.041569,0.241918 -10e-7,0.481465 0.4986722,0.813992 0.8373172,0.558109 0.080123,-0.06055 1.1081393,-1.245514 2.2843148,-2.63139 1.176177,-1.385868 2.1490755,-2.518917 2.161587,-2.518917 0.01251,0 0.021742,1.199695 0.021774,2.665342 6.57e-5,3.036241 -0.00887,2.944695 0.2949418,3.170399 0.091053,0.06764 0.2059264,0.123082 0.2553523,0.123082 0.1762598,0 0.3830749,-0.131011 0.4909098,-0.311947 l 0.1088713,-0.184623 v -2.737493 c 0,-2.365439 0.00706,-2.731846 0.053445,-2.705662 0.029516,0.01669 1.0165439,1.165428 2.1932577,2.552872 1.176716,1.387444 2.195988,2.557369 2.264521,2.599558 0.16901,0.104044 0.337438,0.09413 0.522581,-0.0297 0.25596,-0.171222 0.356655,-0.543679 0.225659,-0.838225 -0.03194,-0.0718 -0.977113,-1.211339 -2.100222,-2.531656 C 9.6542755,15.301338 9.0950809,14.612992 9.1112531,14.553723 9.1783242,14.307918 9.1634163,14.133277 9.0617663,13.955293 8.9097282,13.689105 8.7695873,13.624251 8.3432175,13.624251 H 7.9710762 v -3.019732 z" />
  </g>
</svg>
