<?xml version="1.0" encoding="UTF-8" standalone="no"?>
<!-- Created with Inkscape (http://www.inkscape.org/) -->

<svg
   width="24px"
   height="24px"
   viewBox="0 0 24 24"
   version="1.1"
   id="SVGRoot"
   inkscape:export-filename="/tmp/template.png"
   inkscape:export-xdpi="96"
   inkscape:export-ydpi="96"
   inkscape:version="1.4.2 (ebf0e940, 2025-05-08)"
   sodipodi:docname="gamut-warning-monitor.svg"
   xmlns:inkscape="http://www.inkscape.org/namespaces/inkscape"
   xmlns:sodipodi="http://sodipodi.sourceforge.net/DTD/sodipodi-0.dtd"
   xmlns="http://www.w3.org/2000/svg"
   xmlns:svg="http://www.w3.org/2000/svg"
   xmlns:rdf="http://www.w3.org/1999/02/22-rdf-syntax-ns#"
   xmlns:cc="http://creativecommons.org/ns#"
   xmlns:dc="http://purl.org/dc/elements/1.1/">
  <sodipodi:namedview
     id="base"
     pagecolor="#E0E1E2"
     bordercolor="#666768"
     borderopacity="1.0"
     inkscape:pageopacity="0"
     inkscape:pageshadow="2"
     inkscape:zoom="39.226909"
     inkscape:cx="4.5759405"
     inkscape:cy="13.166982"
     inkscape:document-units="px"
     inkscape:current-layer="layer1"
     showgrid="true"
     inkscape:window-width="2560"
     inkscape:window-height="1322"
     inkscape:window-x="0"
     inkscape:window-y="30"
     inkscape:window-maximized="0"
     inkscape:grid-bbox="true"
     inkscape:pagecheckerboard="false"
     inkscape:snap-bbox="true"
     inkscape:bbox-nodes="true"
     inkscape:snap-others="false"
     inkscape:object-nodes="false"
     inkscape:snap-grids="true"
     inkscape:snap-bbox-midpoints="false"
     inkscape:snap-global="false"
     inkscape:showpageshadow="2"
     inkscape:deskcolor="#d1d1d1">
    <inkscape:grid
       type="xygrid"
       id="grid1374"
       originx="1"
       originy="1"
       empspacing="11"
       dotted="false"
       spacingy="1"
       spacingx="1"
       units="px" />
  </sodipodi:namedview>
  <defs
     id="defs815" />
  <metadata
     id="metadata818">
    <rdf:RDF>
      <cc:Work
         rdf:about="">
        <dc:format>image/svg+xml</dc:format>
        <dc:type
           rdf:resource="http://purl.org/dc/dcmitype/StillImage" />
        <dc:title />
        <dc:creator>
          <cc:Agent>
            <dc:title>Maciej Dworak</dc:title>
          </cc:Agent>
        </dc:creator>
        <dc:rights>
          <cc:Agent>
            <dc:title />
          </cc:Agent>
        </dc:rights>
        <dc:description>RawTherapee icon.</dc:description>
        <cc:license
           rdf:resource="http://creativecommons.org/licenses/by-sa/4.0/" />
      </cc:Work>
      <cc:License
         rdf:about="http://creativecommons.org/licenses/by-sa/4.0/">
        <cc:permits
           rdf:resource="http://creativecommons.org/ns#Reproduction" />
        <cc:permits
           rdf:resource="http://creativecommons.org/ns#Distribution" />
        <cc:requires
           rdf:resource="http://creativecommons.org/ns#Notice" />
        <cc:requires
           rdf:resource="http://creativecommons.org/ns#Attribution" />
        <cc:permits
           rdf:resource="http://creativecommons.org/ns#DerivativeWorks" />
        <cc:requires
           rdf:resource="http://creativecommons.org/ns#ShareAlike" />
      </cc:License>
    </rdf:RDF>
  </metadata>
  <g
     id="layer1"
     inkscape:groupmode="layer"
     inkscape:label="Layer 1">
    <path
       style="opacity:0.7;fill:#2a7fff;fill-opacity:1;fill-rule:evenodd;stroke:none;stroke-width:0.0282861px;stroke-linecap:butt;stroke-linejoin:miter;stroke-opacity:1"
       d="M 7.0404038,3.6748374 C 6.7641,3.656452 6.4831192,3.6911444 6.20152,3.7989155 5.3062015,4.3050024 5.103069,5.3309133 5.0336862,6.1959754 c -0.04134,3.181509 0.3442786,6.3777006 1.2045197,9.4716486 0.00539,0.01681 0.011723,0.03449 0.01712,0.05134 H 6.8704264 C 6.2757676,13.358581 6.0050562,10.933976 6.0364335,8.5192301 6.0937513,7.8045879 6.2616343,6.9574164 7.0012722,6.5393294 7.9318095,6.1832022 8.8504237,6.8032743 9.5692839,7.2602656 10.041834,7.6396369 10.511271,8.0405089 10.978023,8.4497036 10.905197,8.1668656 10.822111,7.8260187 10.75913,7.6004107 a 1.0784037,0.94328015 0 0 1 0,-0.00321 C 10.63876,7.1594292 10.528011,6.7319308 10.426511,6.3157749 a 1.0784037,0.94328015 0 0 1 -0.0012,-0.00215 C 10.332361,5.9275413 10.279707,5.6226646 10.265094,5.3263593 9.9493477,5.1055901 9.633472,4.8849614 9.310037,4.6717406 8.6574117,4.2568556 7.8693164,3.7299945 7.0404038,3.6748374 Z m 8.0941282,5.4786885 c -0.01544,0.063825 -0.02579,0.097699 -0.04157,0.1636547 a 1.0784037,0.94328015 0 0 0 0,0.0011 C 14.930448,9.9921804 14.755497,10.84088 14.570798,11.858672 a 1.0784037,0.94328015 0 0 1 -0.0074,0.03209 c 0.163033,0.169073 0.328316,0.33713 0.489145,0.507009 0.03124,0.02253 0.06749,0.03933 0.0966,0.06418 0.193821,0.162025 0.349223,0.355679 0.484254,0.56049 0.840089,0.90626 1.649601,1.81404 2.407816,2.69656 h 0.764289 v -3.38862 C 17.584003,11.269433 16.367171,10.203722 15.134535,9.1535494 Z"
       id="path17362-9"
       inkscape:connector-curvature="0" />
    <g
       aria-label="!"
       style="font-style:normal;font-variant:normal;font-weight:bold;font-stretch:normal;font-size:30.52574539px;line-height:1.25;font-family:Georgia;-inkscape-font-specification:'Georgia Bold';letter-spacing:0px;word-spacing:0px;opacity:0.7;fill:#2a7fff;fill-opacity:1;stroke:none;stroke-width:0.95392954"
       id="text8364" />
    <rect
       style="opacity:0.84100001;fill:none;fill-opacity:1;stroke:#2a7fff;stroke-width:2;stroke-linecap:round;stroke-miterlimit:10;stroke-dasharray:none;stroke-dashoffset:0;stroke-opacity:1;paint-order:stroke fill markers"
       id="rect4573"
       width="8.5583706"
       height="0.58163643"
       x="7.852098"
       y="21.174906"
       ry="0" />
    <text
       xml:space="preserve"
       style="font-style:normal;font-variant:normal;font-weight:bold;font-stretch:normal;font-size:18.9023px;line-height:1.25;font-family:Georgia;-inkscape-font-specification:'Georgia Bold';letter-spacing:0px;word-spacing:0px;opacity:0.7;fill:#2a7fff;fill-opacity:1;stroke:none;stroke-width:0.590696"
       x="7.9698215"
       y="17.758711"
       id="text8360"
       transform="scale(1.1306817,0.8844222)"><tspan
         sodipodi:role="line"
         id="tspan8358"
         x="7.9698215"
         y="17.758711"
         style="fill:#2a7fff;fill-opacity:1;stroke-width:0.590696">!</tspan></text>
  </g>
  <g
     inkscape:groupmode="layer"
     id="layer2"
     inkscape:label="Layer 2">
    <rect
       style="opacity:0.84100001;fill:none;fill-opacity:1;stroke:#2a7fff;stroke-width:1.67811024;stroke-linecap:round;stroke-miterlimit:10;stroke-dasharray:none;stroke-dashoffset:0;stroke-opacity:1;paint-order:stroke fill markers"
       id="rect61"
       width="19.752884"
       height="15.972244"
       x="2.2756145"
       y="1.6391371"
       ry="2.5847199" />
  </g>
</svg>
